<svg xmlns="http://www.w3.org/2000/svg" version="1.1" xmlns:xlink="http://www.w3.org/1999/xlink" xmlns:svgjs="http://svgjs.dev/svgjs" width="2000" height="1500" viewBox="0 0 2000 1500"><rect width="2000" height="1500" fill="#050816"></rect><g transform="matrix(0.2943773918163085,0,0,0.2943773918163085,704.9034427694033,248.3870967741933)"><svg viewBox="0 0 146 248" data-background-color="#050816" preserveAspectRatio="xMidYMid meet" height="3397" width="2000" xmlns="http://www.w3.org/2000/svg" xmlns:xlink="http://www.w3.org/1999/xlink"><g id="tight-bounds" transform="matrix(1,0,0,1,0.17833935860056727,0.4000000000000057)"><svg viewBox="0 0 145.64332128279884 247.2" height="247.2" width="145.64332128279884"><rect width="145.64332128279884" height="247.2" fill="url(#6047b1a2-2744-422f-bbd0-293c4a12cbd8)" mask="url(#f0e1e394-c7da-41b5-8121-a6c496e245d3)" data-fill-palette-color="tertiary"></rect><g><svg></svg></g><g><svg viewBox="0 0 145.64332128279884 247.2" height="247.2" width="145.64332128279884"><g transform="matrix(1,0,0,1,0,47.215199999999996)"><svg viewBox="0 0 145.64332128279884 152.7696" height="152.7696" width="145.64332128279884"><g><svg viewBox="0 0 145.64332128279884 152.7696" height="152.7696" width="145.64332128279884"><g><svg viewBox="0 0 145.64332128279884 152.7696" height="152.7696" width="145.64332128279884"><g><svg viewBox="0 0 145.64332128279884 152.7696" height="152.7696" width="145.64332128279884"><g id="textblocktransform"><svg viewBox="0 0 145.64332128279884 152.7696" height="152.7696" width="145.64332128279884" id="textblock"><g><svg viewBox="0 0 145.64332128279884 152.7696" height="152.7696" width="145.64332128279884"><g transform="matrix(1,0,0,1,0,0)"><svg width="145.64332128279884" viewBox="-2.05 -34.3 32.699999999999996 34.3" height="152.7696" data-palette-color="url(#ed235208-4472-443d-86c7-b219e106a2da)"></svg></g></svg></g></svg></g></svg></g><g></g></svg></g></svg></g></svg></g><path d="M0 41.215L0 1 145.643 1 145.643 41.215 131.866 41.215 131.866 14.777 13.777 14.777 13.777 41.215 0 41.215M0 205.985L0 246.2 145.643 246.2 145.643 205.985 131.866 205.985 131.866 232.423 13.777 232.423 13.777 205.985 0 205.985" fill="url(#6047b1a2-2744-422f-bbd0-293c4a12cbd8)" stroke="transparent" data-fill-palette-color="tertiary"></path></svg></g><defs></defs><mask id="14f74580-3cba-4c84-ac1c-9b016cbd0a7e"><g id="SvgjsG2745"><svg viewBox="0 0 145.64332128279884 247.2" height="247.2" width="145.64332128279884"><g><svg></svg></g><g><svg viewBox="0 0 145.64332128279884 247.2" height="247.2" width="145.64332128279884"><g transform="matrix(1,0,0,1,0,47.215199999999996)"><svg viewBox="0 0 145.64332128279884 152.7696" height="152.7696" width="145.64332128279884"><g><svg viewBox="0 0 145.64332128279884 152.7696" height="152.7696" width="145.64332128279884"><g><svg viewBox="0 0 145.64332128279884 152.7696" height="152.7696" width="145.64332128279884"><g><svg viewBox="0 0 145.64332128279884 152.7696" height="152.7696" width="145.64332128279884"><g id="SvgjsG2744"><svg viewBox="0 0 145.64332128279884 152.7696" height="152.7696" width="145.64332128279884" id="SvgjsSvg2743"><g><svg viewBox="0 0 145.64332128279884 152.7696" height="152.7696" width="145.64332128279884"><g transform="matrix(1,0,0,1,0,0)"><svg width="145.64332128279884" viewBox="-2.05 -34.3 32.699999999999996 34.3" height="152.7696" data-palette-color="url(#ed235208-4472-443d-86c7-b219e106a2da)"><path d="M-2.05 0L17.25-34.3 23.4-34.3 30.65 0 25.65 0 23.85-9.15 7.95-9.15 2.95 0-2.05 0ZM10.2-13.3L23-13.3 21.15-22.75 19.7-30.2 19.45-30.2 15.5-22.95 10.2-13.3Z" opacity="1" transform="matrix(1,0,0,1,0,0)" fill="white" class="wordmark-text-0" id="SvgjsPath2742"></path></svg></g></svg></g></svg></g></svg></g><g></g></svg></g></svg></g></svg></g><path d="M0 41.215L0 1 145.643 1 145.643 41.215 131.866 41.215 131.866 14.777 13.777 14.777 13.777 41.215 0 41.215M0 205.985L0 246.2 145.643 246.2 145.643 205.985 131.866 205.985 131.866 232.423 13.777 232.423 13.777 205.985 0 205.985" fill="black" stroke="transparent"></path></svg></g><defs><mask></mask></defs></svg><rect width="145.64332128279884" height="247.2" fill="black" stroke="none" visibility="hidden"></rect></g></mask><linearGradient x1="0" x2="1" y1="0.578" y2="0.595" id="ed235208-4472-443d-86c7-b219e106a2da"><stop stop-color="#6ee2f5" offset="0"></stop><stop stop-color="#6454f0" offset="1"></stop></linearGradient><rect width="145.64332128279884" height="247.2" fill="url(#ed235208-4472-443d-86c7-b219e106a2da)" mask="url(#14f74580-3cba-4c84-ac1c-9b016cbd0a7e)" data-fill-palette-color="primary"></rect><mask id="f0e1e394-c7da-41b5-8121-a6c496e245d3"><g id="SvgjsG2768"><svg viewBox="0 0 145.64332128279884 247.2" height="247.2" width="145.64332128279884"><g><svg></svg></g><g><svg viewBox="0 0 145.64332128279884 247.2" height="247.2" width="145.64332128279884"><g transform="matrix(1,0,0,1,0,47.215199999999996)"><svg viewBox="0 0 145.64332128279884 152.7696" height="152.7696" width="145.64332128279884"><g><svg viewBox="0 0 145.64332128279884 152.7696" height="152.7696" width="145.64332128279884"><g><svg viewBox="0 0 145.64332128279884 152.7696" height="152.7696" width="145.64332128279884"><g><svg viewBox="0 0 145.64332128279884 152.7696" height="152.7696" width="145.64332128279884"><g id="SvgjsG2767"><svg viewBox="0 0 145.64332128279884 152.7696" height="152.7696" width="145.64332128279884" id="SvgjsSvg2766"><g><svg viewBox="0 0 145.64332128279884 152.7696" height="152.7696" width="145.64332128279884"><g transform="matrix(1,0,0,1,0,0)"><svg width="145.64332128279884" viewBox="-2.05 -34.3 32.699999999999996 34.3" height="152.7696" data-palette-color="url(#ed235208-4472-443d-86c7-b219e106a2da)"></svg></g></svg></g></svg></g></svg></g><g></g></svg></g></svg></g></svg></g><path d="M0 41.215L0 1 145.643 1 145.643 41.215 131.866 41.215 131.866 14.777 13.777 14.777 13.777 41.215 0 41.215M0 205.985L0 246.2 145.643 246.2 145.643 205.985 131.866 205.985 131.866 232.423 13.777 232.423 13.777 205.985 0 205.985" fill="white" stroke="transparent"></path></svg></g><defs><mask></mask></defs><mask><g id="SvgjsG2765"><svg viewBox="0 0 145.64332128279884 247.2" height="247.2" width="145.64332128279884"><g><svg></svg></g><g><svg viewBox="0 0 145.64332128279884 247.2" height="247.2" width="145.64332128279884"><g transform="matrix(1,0,0,1,0,47.215199999999996)"><svg viewBox="0 0 145.64332128279884 152.7696" height="152.7696" width="145.64332128279884"><g><svg viewBox="0 0 145.64332128279884 152.7696" height="152.7696" width="145.64332128279884"><g><svg viewBox="0 0 145.64332128279884 152.7696" height="152.7696" width="145.64332128279884"><g><svg viewBox="0 0 145.64332128279884 152.7696" height="152.7696" width="145.64332128279884"><g id="SvgjsG2764"><svg viewBox="0 0 145.64332128279884 152.7696" height="152.7696" width="145.64332128279884" id="SvgjsSvg2763"><g><svg viewBox="0 0 145.64332128279884 152.7696" height="152.7696" width="145.64332128279884"><g transform="matrix(1,0,0,1,0,0)"><svg width="145.64332128279884" viewBox="-2.05 -34.3 32.699999999999996 34.3" height="152.7696" data-palette-color="url(#ed235208-4472-443d-86c7-b219e106a2da)"><path d="M-2.05 0L17.25-34.3 23.4-34.3 30.65 0 25.65 0 23.85-9.15 7.95-9.15 2.95 0-2.05 0ZM10.2-13.3L23-13.3 21.15-22.75 19.7-30.2 19.45-30.2 15.5-22.95 10.2-13.3Z" opacity="1" transform="matrix(1,0,0,1,0,0)" fill="black" class="wordmark-text-0" id="SvgjsPath2762"></path></svg></g></svg></g></svg></g></svg></g><g></g></svg></g></svg></g></svg></g><path d="M0 41.215L0 1 145.643 1 145.643 41.215 131.866 41.215 131.866 14.777 13.777 14.777 13.777 41.215 0 41.215M0 205.985L0 246.2 145.643 246.2 145.643 205.985 131.866 205.985 131.866 232.423 13.777 232.423 13.777 205.985 0 205.985" fill="black" stroke="transparent"></path></svg></g><defs><mask></mask></defs></svg><rect width="145.64332128279884" height="247.2" fill="black" stroke="none" visibility="hidden"></rect></g></mask></svg><rect width="145.64332128279884" height="247.2" fill="black" stroke="none" visibility="hidden"></rect></g></mask><linearGradient x1="0" x2="1" y1="0.578" y2="0.595" id="6047b1a2-2744-422f-bbd0-293c4a12cbd8"><stop stop-color="#6ee2f5" offset="0"></stop><stop stop-color="#6454f0" offset="1"></stop></linearGradient></svg><rect width="145.64332128279884" height="247.2" fill="none" stroke="none" visibility="hidden"></rect></g></svg></g></svg>